<svg xmlns="http://www.w3.org/2000/svg" xmlns:xlink="http://www.w3.org/1999/xlink" width="500" zoomAndPan="magnify" viewBox="0 0 375 374.999991" height="500" preserveAspectRatio="xMidYMid meet" version="1.0"><defs><g/><clipPath id="e97358f219"><path d="M 314.96875 267.164062 L 351.699219 267.164062 L 351.699219 303.894531 L 314.96875 303.894531 Z M 314.96875 267.164062 " clip-rule="nonzero"/></clipPath></defs><g clip-path="url(#e97358f219)"><path fill="#e6e6e6" d="M 314.96875 267.164062 L 351.699219 267.164062 L 351.699219 303.894531 L 314.96875 303.894531 Z M 314.96875 267.164062 " fill-opacity="1" fill-rule="nonzero"/></g><g fill="#e6e6e6" fill-opacity="1"><g transform="translate(67.68027, 175.74646)"><g><path d="M 3.203125 0 L 39.0625 0 L 58.734375 -31.578125 L 67.578125 -17.390625 L 78.265625 0 L 114.265625 0 L 78.875 -54.765625 L 112.28125 -106.796875 L 77.953125 -106.796875 L 68.65625 -92 L 58.734375 -75.96875 L 48.671875 -92 L 39.515625 -106.796875 L 5.03125 -106.796875 L 38.59375 -54.46875 Z M 3.203125 0 "/></g></g></g><g fill="#e8e8e8" fill-opacity="1"><g transform="translate(28.619695, 299.589487)"><g><path d="M 11.640625 0 L 43.09375 0 L 43.09375 -55.828125 L 64.328125 -26.109375 L 84.9375 -26.109375 L 106 -55.671875 L 106 0 L 137.46875 0 L 137.46875 -110.09375 L 111.671875 -110.09375 L 74.546875 -57.71875 L 37.59375 -110.09375 L 11.640625 -110.09375 Z M 11.640625 0 "/></g></g></g><g fill="#e6e6e6" fill-opacity="1"><g transform="translate(296.300272, 191.202189)"><g><path d="M 0 -11.640625 L 0 -43.09375 L -55.828125 -43.09375 L -26.109375 -64.328125 L -26.109375 -84.9375 L -55.671875 -106 L 0 -106 L 0 -137.46875 L -110.09375 -137.46875 L -110.09375 -111.671875 L -57.71875 -74.546875 L -110.09375 -37.59375 L -110.09375 -11.640625 Z M 0 -11.640625 "/></g></g></g><g fill="#e6e6e6" fill-opacity="1"><g transform="translate(294.644325, 307.356471)"><g><path d="M 0 -3.296875 L 0 -40.265625 L -32.5625 -60.546875 L -17.9375 -69.671875 L 0 -80.6875 L 0 -117.796875 L -56.46875 -81.3125 L -110.09375 -115.765625 L -110.09375 -80.375 L -94.84375 -70.78125 L -78.328125 -60.546875 L -94.84375 -50.171875 L -110.09375 -40.734375 L -110.09375 -5.1875 L -56.15625 -39.796875 Z M 0 -3.296875 "/></g></g></g></svg>